<svg width="16" height="16" viewBox="0 0 16 16" fill="none" xmlns="http://www.w3.org/2000/svg">
<path d="M14.6667 6.73331C14.7333 6.39998 14.4667 5.99998 14.1333 5.99998L10.3333 5.46665L8.60001 1.99998C8.53334 1.86665 8.46668 1.79998 8.33334 1.73331C8.00001 1.53331 7.60001 1.66665 7.40001 1.99998L5.73334 5.46665L1.93334 5.99998C1.73334 5.99998 1.60001 6.06665 1.53334 6.19998C1.26668 6.46665 1.26668 6.86665 1.53334 7.13331L4.26668 9.79998L3.60001 13.6C3.60001 13.7333 3.60001 13.8666 3.66668 14C3.86668 14.3333 4.26668 14.4666 4.60001 14.2666L8.00001 12.4666L11.4 14.2666C11.4667 14.3333 11.6 14.3333 11.7333 14.3333C11.8 14.3333 11.8 14.3333 11.8667 14.3333C12.2 14.2666 12.4667 13.9333 12.4 13.5333L11.7333 9.73331L14.4667 7.06665C14.6 6.99998 14.6667 6.86665 14.6667 6.73331Z" fill="#FFCF55"/>
</svg>
