<svg width="14" height="21" viewBox="0 0 14 21" fill="none" xmlns="http://www.w3.org/2000/svg">
<path d="M12.1041 2.14669C10.8807 0.783611 9.13729 0.173492 7.21194 0.173492H0.525848V20.8264H4.57976C5.97624 16.8158 8.08993 12.4403 6.64923 5.95777C8.56849 12.7179 6.67018 17.0141 5.33045 20.8264H7.21194C9.13729 20.8264 10.8807 20.2174 12.1039 18.8543C14.1857 16.533 13.9773 13.5164 13.9773 10.4126C13.9775 7.30984 14.1859 4.4669 12.1041 2.14669ZM6.52319 18.3867C7.56088 15.7915 8.65157 11.6286 7.09969 6.52511C9.17632 9.12624 9.49787 12.97 9.0578 14.7236C12.8161 10.5128 8.9536 5.59313 5.09985 3.49692C7.55712 8.10466 7.18652 12.4462 5.27854 17.6694C-0.71594 13.4709 6.40055 8.12211 4.38371 2.36555C13.0891 6.09768 14.641 14.4906 6.52319 18.3867Z" fill="#359740"/>
</svg>
